<svg id="Capa_2" data-name="Capa 2" xmlns="http://www.w3.org/2000/svg" viewBox="0 0 204.66 123.92"><defs><style>.cls-1{fill:#54afe3;}.cls-2{fill:#00263a;}.cls-3{fill:none;stroke:#54afe3;stroke-miterlimit:10;stroke-width:4px;}</style></defs><rect class="cls-1" x="5.46" y="8.69" width="71.64" height="71.64" rx="6.56"/><path class="cls-2" d="M21.52,27.05a3.61,3.61,0,0,1,3.95-3.95,3.61,3.61,0,0,1,3.94,3.95V37.9h.11a10.6,10.6,0,0,1,8.8-4.16c4.75,0,9.93,2.38,9.93,10.37V59.44c0,2.11-.86,3.94-3.94,3.94s-3.94-1.83-3.94-3.94V45.67c0-3.18-1.57-5.45-5-5.45a6.12,6.12,0,0,0-6,6.21v13c0,2.11-.87,3.94-3.94,3.94s-3.95-1.83-3.95-3.94Z"/><path class="cls-2" d="M61.05,22.89A4.11,4.11,0,1,1,57,27,4.09,4.09,0,0,1,61.05,22.89ZM57.11,37.68c0-2.1.86-3.94,3.94-3.94S65,35.58,65,37.68V59.44c0,2.11-.86,3.94-3.94,3.94s-3.94-1.83-3.94-3.94Z"/><path class="cls-1" d="M103.11,33.74c6,0,12,2.38,12,6a3.27,3.27,0,0,1-3.29,3.45c-3.08,0-3.18-3.62-8.15-3.62-2.76,0-4.54.76-4.54,2.43,0,1.84,1.78,2.27,4.21,2.81l3.3.76c4.48,1,9.82,2.91,9.82,8.42,0,6.42-6.2,9.39-12.14,9.39-7.13,0-13.07-3.18-13.07-7.07A3,3,0,0,1,94.48,53c3.4,0,3.72,4.86,9.55,4.86,2.81,0,4.59-1.24,4.59-2.86,0-2-1.73-2.33-4.53-3l-4.65-1.13c-4.59-1.14-8.15-3-8.15-8.32C91.29,36.12,97.66,33.74,103.11,33.74Z"/><path class="cls-1" d="M137.08,33.74c9.5,0,14.58,6.48,14.58,14.8,0,7.88-3.84,14.84-14.58,14.84s-14.58-7-14.58-14.84C122.5,40.22,127.58,33.74,137.08,33.74Zm0,23.81c4.7,0,6.69-4.21,6.69-9,0-5.13-2.1-9-6.69-9s-6.7,3.84-6.7,9C130.38,53.34,132.38,57.55,137.08,57.55Z"/><path class="cls-1" d="M9,91.23a2.74,2.74,0,0,1,3-3,2.75,2.75,0,0,1,3,3v8.14h.08a6.61,6.61,0,0,1,5.92-3c6.34,0,9.26,5.39,9.26,11.15,0,7.77-4.41,11.43-9.42,11.43-2.92,0-5.35-1.23-6.34-3.78h-.08v.94c0,1.85-1,2.84-2.72,2.84S9,117.92,9,116.07ZM19.53,101c-3.66,0-4.81,3.58-4.81,6.66,0,3.42,1.31,6.54,4.81,6.54,3.21-.08,4.77-3,4.77-6.54C24.3,104.88,23.35,101,19.53,101Z"/><path class="cls-1" d="M56.17,115.91c0,1.81-.82,3-2.72,3s-2.71-1.19-2.71-3v-.78h-.08a8.62,8.62,0,0,1-7.28,3.78c-3.62,0-7.57-1.81-7.57-7.9V99.33a2.66,2.66,0,0,1,3-3c2.35,0,3,1.4,3,3v10.49c0,2.43,1.2,4.15,3.79,4.15a4.65,4.65,0,0,0,4.56-4.73V99.33c0-1.6.66-3,3-3a2.66,2.66,0,0,1,3,3Z"/><path class="cls-1" d="M70.64,96.33c4.57,0,9.17,1.81,9.17,4.56a2.5,2.5,0,0,1-2.5,2.64c-2.35,0-2.43-2.76-6.22-2.76-2.09,0-3.45.58-3.45,1.85s1.36,1.73,3.21,2.14l2.51.58c3.41.78,7.48,2.22,7.48,6.41,0,4.9-4.73,7.16-9.25,7.16-5.43,0-10-2.43-10-5.39A2.31,2.31,0,0,1,64.06,111c2.59,0,2.84,3.7,7.28,3.7,2.14,0,3.5-.94,3.5-2.18,0-1.52-1.32-1.76-3.46-2.3l-3.54-.86c-3.49-.87-6.21-2.31-6.21-6.34C61.63,98.14,66.49,96.33,70.64,96.33Z"/><path class="cls-1" d="M89.64,88.06a3.13,3.13,0,1,1-3.13,3.13A3.13,3.13,0,0,1,89.64,88.06Zm-3,11.27a3,3,0,0,1,6,0v16.58a3,3,0,0,1-6,0Z"/><path class="cls-1" d="M99.38,99.33c0-1.81.83-3,2.72-3s2.71,1.19,2.71,3v.78h.09a8.59,8.59,0,0,1,7.28-3.78c3.62,0,7.56,1.81,7.56,7.9v11.68c0,1.6-.65,3-3,3a2.66,2.66,0,0,1-3-3V105.42c0-2.43-1.19-4.15-3.79-4.15a4.66,4.66,0,0,0-4.56,4.73v9.91a2.66,2.66,0,0,1-3,3c-2.35,0-3-1.4-3-3Z"/><path class="cls-1" d="M131.26,108.75a5.18,5.18,0,0,0,5.55,5.47c4.52,0,4.52-3,6.95-3a2.48,2.48,0,0,1,2.47,2.34c0,3.62-5.8,5.31-9.42,5.31-8.39,0-11.56-5.68-11.56-10.9,0-7,4.24-11.68,11.35-11.68,6.91,0,10.86,4.89,10.86,9.83,0,2.06-.62,2.59-2.63,2.59Zm10.53-3.45a5.15,5.15,0,0,0-5.06-4.78c-3,0-4.82,1.86-5.47,4.78Z"/><path class="cls-1" d="M161,96.33c4.56,0,9.17,1.81,9.17,4.56a2.5,2.5,0,0,1-2.51,2.64c-2.34,0-2.42-2.76-6.21-2.76-2.1,0-3.45.58-3.45,1.85s1.35,1.73,3.2,2.14l2.51.58c3.42.78,7.49,2.22,7.49,6.41,0,4.9-4.73,7.16-9.25,7.16-5.43,0-10-2.43-10-5.39a2.31,2.31,0,0,1,2.43-2.51c2.59,0,2.84,3.7,7.28,3.7,2.14,0,3.49-.94,3.49-2.18,0-1.52-1.31-1.76-3.45-2.3l-3.54-.86c-3.49-.87-6.21-2.31-6.21-6.34C152,98.14,156.88,96.33,161,96.33Z"/><path class="cls-1" d="M184.75,96.33c4.57,0,9.18,1.81,9.18,4.56a2.5,2.5,0,0,1-2.51,2.64c-2.35,0-2.43-2.76-6.21-2.76-2.1,0-3.46.58-3.46,1.85s1.36,1.73,3.21,2.14l2.51.58c3.41.78,7.49,2.22,7.49,6.41,0,4.9-4.73,7.16-9.26,7.16-5.43,0-9.95-2.43-9.95-5.39a2.31,2.31,0,0,1,2.42-2.51c2.6,0,2.84,3.7,7.28,3.7,2.14,0,3.5-.94,3.5-2.18,0-1.52-1.32-1.76-3.45-2.3l-3.54-.86c-3.5-.87-6.21-2.31-6.21-6.34C175.75,98.14,180.6,96.33,184.75,96.33Z"/><path class="cls-1" d="M158,39.63h-1.79c-2.21,0-3.13-.87-3.13-2.59s.92-2.6,3.13-2.6H158V30.5c0-5,4.1-7.61,8.69-7.61,2.86,0,5.18,1.13,5.18,3.78a2.64,2.64,0,0,1-2.53,2.7c-.6,0-1.14-.16-1.73-.16A1.64,1.64,0,0,0,165.91,31v3.4h2.43c2.32,0,3.56.71,3.56,2.6s-1.24,2.59-3.56,2.59h-2.43V59.44a3.94,3.94,0,0,1-7.88,0Z"/><path class="cls-1" d="M179.73,39.63h-1.35c-2.21,0-3.13-.87-3.13-2.59s.92-2.6,3.13-2.6h1.35v-4.8a3.95,3.95,0,0,1,7.89,0v4.8H190c2.32,0,3.57.71,3.57,2.6s-1.25,2.59-3.57,2.59h-2.37V55.39c0,1.19.65,1.84,2,1.84h1.13a2.47,2.47,0,0,1,2.76,2.64c0,2.27-1.95,3.51-5.73,3.51-5.72,0-8.1-2.37-8.1-7Z"/><rect class="cls-3" x="86.11" y="11.17" width="111.99" height="67.25" rx="9.82"/></svg>