<svg xmlns="http://www.w3.org/2000/svg" viewBox="0 0 249.23 193.62"><defs><style>.cls-1{fill:#00263a;}.cls-2{fill:#54afe3;}.cls-3{fill:#fff;}</style></defs><g id="Capa_2" data-name="Capa 2"><rect class="cls-1" x="40.31" y="40.36" width="71.64" height="71.64" rx="6.56"/><path class="cls-2" d="M182,114.4h-50.7a12.88,12.88,0,0,1-12.87-12.87V50.83A12.88,12.88,0,0,1,131.32,38H182a12.88,12.88,0,0,1,12.86,12.86v50.7A12.88,12.88,0,0,1,182,114.4Zm-50.7-71.64a8.08,8.08,0,0,0-8.08,8.07v50.7a8.09,8.09,0,0,0,8.08,8.08H182a8.09,8.09,0,0,0,8.07-8.08V50.83A8.08,8.08,0,0,0,182,42.76Z"/><path class="cls-3" d="M56.37,58.72a3.6,3.6,0,0,1,3.94-3.94,3.6,3.6,0,0,1,3.94,3.94V69.57h.11a10.61,10.61,0,0,1,8.8-4.16c4.75,0,9.94,2.38,9.94,10.37V91.11c0,2.11-.87,3.94-3.94,3.94s-4-1.83-4-3.94V77.34c0-3.18-1.56-5.45-5-5.45a6.12,6.12,0,0,0-6,6.21v13c0,2.11-.86,3.94-3.94,3.94s-3.94-1.83-3.94-3.94Z"/><path class="cls-3" d="M95.9,54.56a4.11,4.11,0,1,1-4.11,4.1A4.1,4.1,0,0,1,95.9,54.56ZM92,69.35c0-2.1.86-3.94,3.94-3.94s3.94,1.84,3.94,3.94V91.11c0,2.11-.86,3.94-3.94,3.94S92,93.22,92,91.11Z"/><path class="cls-2" d="M138,65.41c6,0,12,2.38,12,6a3.27,3.27,0,0,1-3.29,3.45c-3.08,0-3.19-3.62-8.16-3.62-2.75,0-4.53.76-4.53,2.43,0,1.84,1.78,2.27,4.21,2.81l3.29.76c4.49,1,9.83,2.91,9.83,8.42,0,6.42-6.21,9.39-12.15,9.39-7.12,0-13.06-3.18-13.06-7.07a3,3,0,0,1,3.18-3.29c3.4,0,3.73,4.86,9.56,4.86,2.81,0,4.59-1.24,4.59-2.86,0-2-1.73-2.33-4.54-3l-4.64-1.13c-4.59-1.14-8.15-3-8.15-8.32C126.14,67.79,132.51,65.41,138,65.41Z"/><path class="cls-2" d="M171.92,65.41c9.51,0,14.58,6.48,14.58,14.8,0,7.88-3.83,14.84-14.58,14.84s-14.57-7-14.57-14.84C157.35,71.89,162.42,65.41,171.92,65.41Zm0,23.81c4.7,0,6.7-4.21,6.7-9,0-5.13-2.11-9-6.7-9s-6.69,3.84-6.69,9C165.23,85,167.23,89.22,171.92,89.22Z"/><path class="cls-2" d="M52.53,123.39a2.89,2.89,0,0,1,5.77,0v7.82h.08a6.31,6.31,0,0,1,5.68-2.92c6.08,0,8.88,5.17,8.88,10.69,0,7.47-4.22,11-9,11-2.8,0-5.13-1.19-6.08-3.63h-.08v.9c0,1.78-.9,2.73-2.6,2.73s-2.61-1-2.61-2.73Zm10.07,9.4c-3.51,0-4.62,3.43-4.62,6.39,0,3.28,1.26,6.28,4.62,6.28,3.08-.08,4.58-2.88,4.58-6.28C67.18,136.5,66.27,132.79,62.6,132.79Z"/><path class="cls-2" d="M97.76,147.08c0,1.73-.79,2.88-2.6,2.88s-2.61-1.15-2.61-2.88v-.75h-.08a8.27,8.27,0,0,1-7,3.63c-3.48,0-7.27-1.74-7.27-7.58V131.17a2.89,2.89,0,0,1,5.77,0v10.07c0,2.32,1.14,4,3.63,4A4.48,4.48,0,0,0,92,140.68v-9.51a2.88,2.88,0,0,1,5.76,0Z"/><path class="cls-2" d="M111.65,128.29c4.38,0,8.8,1.74,8.8,4.38a2.39,2.39,0,0,1-2.4,2.53c-2.25,0-2.33-2.65-6-2.65-2,0-3.32.55-3.32,1.78s1.3,1.66,3.08,2l2.41.55c3.27.75,7.18,2.13,7.18,6.16,0,4.7-4.54,6.87-8.88,6.87-5.21,0-9.55-2.33-9.55-5.17a2.21,2.21,0,0,1,2.32-2.41c2.49,0,2.73,3.55,7,3.55,2.05,0,3.36-.91,3.36-2.09,0-1.46-1.27-1.7-3.32-2.21L109,140.8c-3.36-.83-6-2.21-6-6.08C103,130,107.66,128.29,111.65,128.29Z"/><path class="cls-2" d="M129.88,120.35a3,3,0,1,1-3,3A3,3,0,0,1,129.88,120.35ZM127,131.17a2.88,2.88,0,1,1,5.76,0v15.91a2.88,2.88,0,1,1-5.76,0Z"/><path class="cls-2" d="M139.23,131.17c0-1.74.79-2.88,2.61-2.88s2.6,1.14,2.6,2.88v.75h.08a8.27,8.27,0,0,1,7-3.63c3.47,0,7.26,1.74,7.26,7.58v11.21a2.88,2.88,0,0,1-5.76,0V137c0-2.33-1.15-4-3.63-4a4.47,4.47,0,0,0-4.38,4.54v9.52a2.89,2.89,0,0,1-5.77,0Z"/><path class="cls-2" d="M169.82,140.21a5,5,0,0,0,5.33,5.25c4.34,0,4.34-2.84,6.67-2.84a2.38,2.38,0,0,1,2.37,2.25c0,3.47-5.57,5.09-9,5.09-8.06,0-11.09-5.45-11.09-10.46,0-6.71,4.06-11.21,10.89-11.21,6.63,0,10.42,4.7,10.42,9.43,0,2-.59,2.49-2.53,2.49Zm10.1-3.32a4.93,4.93,0,0,0-4.85-4.58c-2.88,0-4.62,1.78-5.25,4.58Z"/><path class="cls-2" d="M198.39,128.29c4.38,0,8.8,1.74,8.8,4.38a2.39,2.39,0,0,1-2.4,2.53c-2.25,0-2.33-2.65-6-2.65-2,0-3.32.55-3.32,1.78s1.3,1.66,3.08,2l2.41.55c3.27.75,7.18,2.13,7.18,6.16,0,4.7-4.54,6.87-8.88,6.87-5.21,0-9.55-2.33-9.55-5.17a2.21,2.21,0,0,1,2.32-2.41c2.49,0,2.73,3.55,7,3.55,2.05,0,3.36-.91,3.36-2.09,0-1.46-1.27-1.7-3.32-2.21l-3.39-.83c-3.36-.83-6-2.21-6-6.08C189.75,130,194.4,128.29,198.39,128.29Z"/><path class="cls-2" d="M221.16,128.29c4.38,0,8.8,1.74,8.8,4.38a2.4,2.4,0,0,1-2.41,2.53c-2.25,0-2.32-2.65-6-2.65-2,0-3.31.55-3.31,1.78s1.3,1.66,3.08,2l2.4.55c3.28.75,7.19,2.13,7.19,6.16,0,4.7-4.54,6.87-8.88,6.87-5.21,0-9.55-2.33-9.55-5.17a2.21,2.21,0,0,1,2.32-2.41c2.49,0,2.73,3.55,7,3.55,2,0,3.36-.91,3.36-2.09,0-1.46-1.27-1.7-3.32-2.21l-3.39-.83c-3.36-.83-6-2.21-6-6.08C212.52,130,217.17,128.29,221.16,128.29Z"/><rect class="cls-1" x="5.25" y="79.39" width="29.93" height="29.93" rx="3.89"/><path class="cls-3" d="M203.15,96.47a5,5,0,0,1-5.36-5.36V72.71h-.36c-4,0-4.55-2.51-4.55-4s.59-4,4.55-4h.36V62.17c0-5.31,4.16-9,10.11-9,4.07,0,6.6,2,6.6,5.2a4,4,0,0,1-3.95,4.12,6.72,6.72,0,0,1-1.07-.1,4.76,4.76,0,0,0-.66-.07c-.23,0-.31,0-.31.42v2h1c4.12,0,5,2.18,5,4s-.86,4-5,4h-1v18.4A5,5,0,0,1,203.15,96.47Z"/><path class="cls-3" d="M229,96.47c-6.31,0-9.51-2.84-9.51-8.43V72.71c-3.9,0-4.48-2.52-4.48-4s.58-4,4.48-4V61.31a5.36,5.36,0,1,1,10.72,0V64.7h1c4.11,0,5,2.18,5,4s-.87,4-5,4h-1V87.06a1,1,0,0,0,0,.33h0a1.33,1.33,0,0,0,.59.09H232a3.86,3.86,0,0,1,4.18,4.06C236.16,93,235.46,96.47,229,96.47Z"/><path class="cls-2" d="M199.21,71.3h-1.78c-2.22,0-3.14-.87-3.14-2.59s.92-2.6,3.14-2.6h1.78V62.17c0-5,4.1-7.61,8.69-7.61,2.86,0,5.18,1.13,5.18,3.78a2.64,2.64,0,0,1-2.53,2.7c-.6,0-1.14-.16-1.73-.16a1.65,1.65,0,0,0-1.73,1.83v3.4h2.43c2.32,0,3.56.71,3.56,2.6s-1.24,2.59-3.56,2.59h-2.43V91.11a3.94,3.94,0,0,1-7.88,0Z"/><path class="cls-2" d="M220.92,71.3h-1.35c-2.22,0-3.14-.87-3.14-2.59s.92-2.6,3.14-2.6h1.35v-4.8a3.94,3.94,0,1,1,7.88,0v4.8h2.37c2.33,0,3.57.71,3.57,2.6s-1.24,2.59-3.57,2.59H228.8V87.06c0,1.19.65,1.84,2,1.84H232a2.47,2.47,0,0,1,2.76,2.64c0,2.27-2,3.51-5.72,3.51-5.73,0-8.1-2.37-8.1-7Z"/><rect class="cls-2" x="160.07" y="1.74" width="29.93" height="29.93" rx="3.89"/><rect class="cls-1" x="76.13" y="160.14" width="29.93" height="29.93" rx="3.89"/><rect class="cls-1" x="218.3" y="25.23" width="21.41" height="21.41" rx="2.56"/><rect class="cls-1" x="48.42" y="12.19" width="21.41" height="21.41" rx="2.56"/></g></svg>